<svg version="1.1" id="Layer_1" xmlns="http://www.w3.org/2000/svg" xmlns:xlink="http://www.w3.org/1999/xlink" x="0px" y="0px"
	 width="100%" viewBox="0 0 400 400" enable-background="new 0 0 400 400" xml:space="preserve">
<path fill="#000000" opacity="1.000000" stroke="none" 
	d="
M215.999939,348.296936 
	C167.009079,348.294403 118.518242,348.293030 70.027397,348.287201 
	C61.725628,348.286194 61.642815,348.277435 61.646664,340.104584 
	C61.681278,266.623871 61.744568,193.143173 61.806118,119.662468 
	C61.819798,103.332924 61.826500,87.003235 61.903790,70.673935 
	C61.935520,63.969971 62.216515,63.767563 69.081566,63.766617 
	C149.066437,63.755562 229.051315,63.744217 309.036194,63.764591 
	C310.783936,63.765038 312.713684,63.195789 314.586456,65.038124 
	C312.857941,69.128471 310.067169,72.873886 308.727325,77.317772 
	C308.167542,79.174553 305.582428,78.862137 303.782410,78.841087 
	C295.955200,78.749550 288.129028,78.452850 280.302399,78.448143 
	C217.314316,78.410263 154.326218,78.414314 91.338127,78.437866 
	C87.879433,78.439156 84.420860,78.728081 79.469040,78.950058 
	C107.901276,135.619324 135.897156,191.418869 164.199768,247.829788 
	C171.137115,241.294937 177.621002,235.379593 183.893280,229.247772 
	C225.945633,188.137161 267.938019,146.965164 310.025665,105.890770 
	C311.838287,104.121788 313.441833,100.823326 317.037720,102.777306 
	C320.581024,104.702721 321.983063,106.983109 319.783081,111.239090 
	C311.296356,127.657272 303.115204,144.234055 294.878784,160.780884 
	C268.681030,213.411713 242.475357,266.038666 216.390930,318.725647 
	C214.221115,323.108368 210.998367,327.052551 209.876587,331.854736 
	C211.832474,333.475525 213.736267,332.901978 215.493469,332.902618 
	C251.819473,332.915741 288.145508,332.889496 324.471527,332.867523 
	C331.699402,332.863159 331.732666,332.856445 331.730072,325.681488 
	C331.704773,255.528229 331.715210,185.374847 331.528290,115.222000 
	C331.515594,110.454102 332.780426,108.767807 337.621796,108.660515 
	C346.430634,108.465286 346.398804,108.189896 346.398224,117.280258 
	C346.393494,191.766174 346.400482,266.252075 346.399536,340.738007 
	C346.399445,348.251160 346.386108,348.270416 338.975281,348.272858 
	C298.150177,348.286407 257.325043,348.289734 215.999939,348.296936 
M77.056709,169.500000 
	C77.056709,222.992584 77.056709,276.485168 77.056709,329.977722 
	C77.560204,330.161469 78.063698,330.345215 78.567192,330.528961 
	C83.974457,325.462891 89.441574,320.459015 94.778084,315.319489 
	C112.883102,297.882690 130.886597,280.339905 149.073624,262.989410 
	C152.063293,260.137238 152.212067,257.576599 150.475769,254.169556 
	C143.447495,240.378281 136.540237,226.525406 129.568192,212.705414 
	C113.001549,179.867081 95.962914,147.264114 80.361206,113.944031 
	C79.679482,112.488113 79.206757,110.682899 77.055733,109.509254 
	C77.055733,129.562241 77.055733,149.031128 77.056709,169.500000 
z"/>
<path fill="#000000" opacity="1.000000" stroke="none" 
	d="
M346.526184,96.647675 
	C333.306152,104.138252 321.553040,100.584839 316.962341,87.951157 
	C314.102020,80.079407 317.713104,73.929642 322.785858,68.523415 
	C328.061157,62.901375 334.962250,62.443951 341.773804,64.606728 
	C348.791626,66.834999 352.955933,73.514992 353.347504,80.631004 
	C353.700104,87.038231 352.325623,92.535637 346.526184,96.647675 
z"/>
</svg>